# xmcd CD database file
#
# Track frame offsets:
#	150
#	18947
#	42239
#
# Disc length: 660 seconds
#
# Revision: 0
# Processed by: cddbd v1.4PL0 Copyright (c) Steve Scherf et al.
# Submitted via: CDex 1.50Beta7
#
DISCID=19029203
DTITLE=Renato Carosone - Salsa del pensamiento
DYEAR=2002
DGENRE=Salsa
TTITLE0=Renato Carosone-Salsa del pensamiento
TTITLE1=Renato Carosone-Maruzzella
TTITLE2=Renato Carosone-'O miliardario
EXTD=YEAR: 2002
EXTT0=
EXTT1=
EXTT2=
PLAYORDER=
